<svg width="24" height="25" viewBox="0 0 24 25" fill="none" xmlns="http://www.w3.org/2000/svg">
<path d="M24 12.2239C24 12.4891 23.8946 12.7435 23.7071 12.931C23.5196 13.1185 23.2652 13.2239 23 13.2239H13V23.2239C13 23.4891 12.8946 23.7435 12.7071 23.931C12.5196 24.1185 12.2652 24.2239 12 24.2239C11.7348 24.2239 11.4804 24.1185 11.2929 23.931C11.1054 23.7435 11 23.4891 11 23.2239V13.2239H1C0.734784 13.2239 0.48043 13.1185 0.292893 12.931C0.105357 12.7435 0 12.4891 0 12.2239C0 11.9587 0.105357 11.7043 0.292893 11.5168C0.48043 11.3292 0.734784 11.2239 1 11.2239H11V1.22389C11 0.958676 11.1054 0.704322 11.2929 0.516786C11.4804 0.329249 11.7348 0.223892 12 0.223892C12.2652 0.223892 12.5196 0.329249 12.7071 0.516786C12.8946 0.704322 13 0.958676 13 1.22389V11.2239H23C23.2652 11.2239 23.5196 11.3292 23.7071 11.5168C23.8946 11.7043 24 11.9587 24 12.2239Z" fill="black"/>
</svg>
