<?xml version="1.0" encoding="UTF-8"?>
<svg width="128pt" height="128pt" version="1.1" viewBox="0 0 128 128" xmlns="http://www.w3.org/2000/svg">
 <g>
  <path d="m69.629 26.668v7.1094h42.668v87.109h-64v-70.988l-7.1133-2.7344v80.836h78.223v-101.33z"/>
  <path d="m64.297 37.391v-13.312l-16 6.1562-16-6.1562v13.312l16 6.1562z"/>
  <path d="m21.324 16.281h-0.003907l-1.7461-0.66797-0.03125-0.015625-0.011719 0.019532-10.938 19.188 5.0352 1.9453 8-14.098v17.148l5.332 2.0625v-23.41l-5.6172-2.1602z"/>
  <path d="m48.297 26.668 34.664-13.336-34.664-13.332-34.668 13.332 5.9297 2.2539 21.309-8.2266 7.4297 2.8594-21.309 8.2266z"/>
  <path d="m55.406 49.777h32v3.5547h-32z"/>
  <path d="m55.406 64h32v3.5547h-32z"/>
  <path d="m55.406 78.223h32v3.5586h-32z"/>
  <path d="m55.406 92.445h32v3.5547h-32z"/>
  <path d="m55.406 106.67h32v3.5547h-32z"/>
  <path d="m98.07 46.223v3.5547h-3.5547v3.5547h3.5547v3.5547h3.5586v-3.5547h3.5547v-3.5547h-3.5547v-3.5547z"/>
  <path d="m94.516 64h10.668v3.5547h-10.668z"/>
  <path d="m94.516 81.777h3.5547v3.5547h3.5586v-3.5547h3.5547v-3.5547h-3.5547v-3.5547h-3.5586v3.5547h-3.5547z"/>
  <path d="m94.516 92.445h10.668v3.5547h-10.668z"/>
  <path d="m94.516 110.22h3.5547v3.5547h3.5586v-3.5547h3.5547v-3.5547h-3.5547v-3.5547h-3.5586v3.5547h-3.5547z"/>
 </g>
</svg>
