<svg width="32" height="33" viewBox="0 0 32 33" fill="none" xmlns="http://www.w3.org/2000/svg">
<g clip-path="url(#clip0_2_1038)">
<path d="M23 4.72389H18V3.72389C18 2.92824 17.6839 2.16518 17.1213 1.60257C16.5587 1.03996 15.7956 0.723892 15 0.723892H9C8.20435 0.723892 7.44129 1.03996 6.87868 1.60257C6.31607 2.16518 6 2.92824 6 3.72389V4.72389H1C0.734784 4.72389 0.48043 4.82925 0.292893 5.01679C0.105357 5.20432 0 5.45868 0 5.72389C0 5.98911 0.105357 6.24346 0.292893 6.431C0.48043 6.61854 0.734784 6.72389 1 6.72389H2V24.7239C2 25.2543 2.21071 25.763 2.58579 26.1381C2.96086 26.5132 3.46957 26.7239 4 26.7239H20C20.5304 26.7239 21.0391 26.5132 21.4142 26.1381C21.7893 25.763 22 25.2543 22 24.7239V6.72389H23C23.2652 6.72389 23.5196 6.61854 23.7071 6.431C23.8946 6.24346 24 5.98911 24 5.72389C24 5.45868 23.8946 5.20432 23.7071 5.01679C23.5196 4.82925 23.2652 4.72389 23 4.72389ZM8 3.72389C8 3.45868 8.10536 3.20432 8.29289 3.01679C8.48043 2.82925 8.73478 2.72389 9 2.72389H15C15.2652 2.72389 15.5196 2.82925 15.7071 3.01679C15.8946 3.20432 16 3.45868 16 3.72389V4.72389H8V3.72389ZM20 24.7239H4V6.72389H20V24.7239ZM10 11.7239V19.7239C10 19.9891 9.89464 20.2435 9.70711 20.431C9.51957 20.6185 9.26522 20.7239 9 20.7239C8.73478 20.7239 8.48043 20.6185 8.29289 20.431C8.10536 20.2435 8 19.9891 8 19.7239V11.7239C8 11.4587 8.10536 11.2043 8.29289 11.0168C8.48043 10.8292 8.73478 10.7239 9 10.7239C9.26522 10.7239 9.51957 10.8292 9.70711 11.0168C9.89464 11.2043 10 11.4587 10 11.7239ZM16 11.7239V19.7239C16 19.9891 15.8946 20.2435 15.7071 20.431C15.5196 20.6185 15.2652 20.7239 15 20.7239C14.7348 20.7239 14.4804 20.6185 14.2929 20.431C14.1054 20.2435 14 19.9891 14 19.7239V11.7239C14 11.4587 14.1054 11.2043 14.2929 11.0168C14.4804 10.8292 14.7348 10.7239 15 10.7239C15.2652 10.7239 15.5196 10.8292 15.7071 11.0168C15.8946 11.2043 16 11.4587 16 11.7239Z" fill="#FF5964"/>
</g>
<defs>
<clipPath id="clip0_2_1038">
<rect width="32" height="32" fill="white" transform="translate(0 0.723892)"/>
</clipPath>
</defs>
</svg>
